<?xml version="1.0" encoding="UTF-8"?>
<!DOCTYPE svg
  PUBLIC '-//W3C//DTD SVG 1.1//EN'
  'http://www.w3.org/Graphics/SVG/1.1/DTD/svg11.dtd'>
<svg version="1.1" xmlns="http://www.w3.org/2000/svg" width="44.350mm" height="23.764mm">
    <!--Autogenerated with python-barcode 0.14.0-->
    <g id="barcode_group">
        <rect width="100%" height="100%" style="fill:white"/>
        <rect x="6.500mm" y="1.000mm" width="0.330mm" height="15.000mm" style="fill:black;"/>
        <rect x="7.160mm" y="1.000mm" width="0.330mm" height="15.000mm" style="fill:black;"/>
        <rect x="7.820mm" y="1.000mm" width="1.320mm" height="15.000mm" style="fill:black;"/>
        <rect x="9.470mm" y="1.000mm" width="0.330mm" height="15.000mm" style="fill:black;"/>
        <rect x="10.790mm" y="1.000mm" width="0.330mm" height="15.000mm" style="fill:black;"/>
        <rect x="11.780mm" y="1.000mm" width="0.330mm" height="15.000mm" style="fill:black;"/>
        <rect x="13.100mm" y="1.000mm" width="0.330mm" height="15.000mm" style="fill:black;"/>
        <rect x="13.760mm" y="1.000mm" width="0.660mm" height="15.000mm" style="fill:black;"/>
        <rect x="15.080mm" y="1.000mm" width="0.990mm" height="15.000mm" style="fill:black;"/>
        <rect x="16.400mm" y="1.000mm" width="0.330mm" height="15.000mm" style="fill:black;"/>
        <rect x="17.060mm" y="1.000mm" width="0.990mm" height="15.000mm" style="fill:black;"/>
        <rect x="18.380mm" y="1.000mm" width="0.660mm" height="15.000mm" style="fill:black;"/>
        <rect x="20.030mm" y="1.000mm" width="0.330mm" height="15.000mm" style="fill:black;"/>
        <rect x="21.020mm" y="1.000mm" width="0.330mm" height="15.000mm" style="fill:black;"/>
        <rect x="21.680mm" y="1.000mm" width="0.330mm" height="15.000mm" style="fill:black;"/>
        <rect x="22.340mm" y="1.000mm" width="0.330mm" height="15.000mm" style="fill:black;"/>
        <rect x="23.000mm" y="1.000mm" width="0.660mm" height="15.000mm" style="fill:black;"/>
        <rect x="23.990mm" y="1.000mm" width="0.660mm" height="15.000mm" style="fill:black;"/>
        <rect x="25.310mm" y="1.000mm" width="0.990mm" height="15.000mm" style="fill:black;"/>
        <rect x="26.630mm" y="1.000mm" width="0.330mm" height="15.000mm" style="fill:black;"/>
        <rect x="27.620mm" y="1.000mm" width="0.660mm" height="15.000mm" style="fill:black;"/>
        <rect x="28.610mm" y="1.000mm" width="0.660mm" height="15.000mm" style="fill:black;"/>
        <rect x="29.930mm" y="1.000mm" width="0.330mm" height="15.000mm" style="fill:black;"/>
        <rect x="30.590mm" y="1.000mm" width="0.330mm" height="15.000mm" style="fill:black;"/>
        <rect x="32.240mm" y="1.000mm" width="0.330mm" height="15.000mm" style="fill:black;"/>
        <rect x="33.560mm" y="1.000mm" width="0.330mm" height="15.000mm" style="fill:black;"/>
        <rect x="34.550mm" y="1.000mm" width="0.330mm" height="15.000mm" style="fill:black;"/>
        <rect x="35.540mm" y="1.000mm" width="0.330mm" height="15.000mm" style="fill:black;"/>
        <rect x="36.860mm" y="1.000mm" width="0.330mm" height="15.000mm" style="fill:black;"/>
        <rect x="37.520mm" y="1.000mm" width="0.330mm" height="15.000mm" style="fill:black;"/>
        <text x="22.175mm" y="21.000mm" style="fill:black;font-size:10pt;text-anchor:middle;">7389478292678</text>
    </g>
</svg>
